# xmcd
#
# Track frame offsets:
#	150
#	18903
#	36888
#	54238
#	71722
#	89155
#	105204
#	119237
#	136176
#	151511
#	168346
#	186929
#	203285
#	218972
#	236649
#	252516
#	270729
#	287534
#	303915
#	320008
#	335074
#
# Disc length: 4677 seconds
#
# Revision: 1
# Processed by: cddbd v1.5.2PL0 Copyright (c) Steve Scherf et al.
# Submitted via: dBpowerAMP V4.0
#
DISCID=2e124315
DTITLE=Various Artist - ERG NCT 176
DYEAR=2009
DGENRE=Country
TTITLE0=Rascal Flatts - Here Comes Goodbye
TTITLE1=Carrie Underwood - I Told You So
TTITLE2=George Canyon - All Or Nothing
TTITLE3=Lady Antebellum - I Run To You
TTITLE4=John Rich - Another You
TTITLE5=Montgomery Gentry - One in Every Crowd
TTITLE6=Trace Adkins - Marry For Money
TTITLE7=Craig Morgan - God Must Really Love Me
TTITLE8=Phil Vassar - Prayer Of A Commom Man
TTITLE9=Gord Bamford - Little Guy
TTITLE10=Keith Anderson - She Could've Been Mine
TTITLE11=Rick Tippe - Last Call
TTITLE12=Trent Tomlinson - That's How It Still Oughta Be
TTITLE13=Deric Ruttan - California Plates
TTITLE14=Zac Brown Band - Whatever It Is
TTITLE15=Chuck Wicks - Man of the House
TTITLE16=Johnny Reid - A Woman Like You
TTITLE17=James Otto - These Are The Good Ole Days
TTITLE18=The Wilkinsons - You Heal Me
TTITLE19=Darryl Worley - Sounds Like Life To Me
TTITLE20=Danielle Peck - Can't Behave
EXTD=
EXTT0=
EXTT1=
EXTT2=
EXTT3=
EXTT4=
EXTT5=
EXTT6=
EXTT7=
EXTT8=
EXTT9=
EXTT10=
EXTT11=
EXTT12=
EXTT13=
EXTT14=
EXTT15=
EXTT16=
EXTT17=
EXTT18=
EXTT19=
EXTT20=
PLAYORDER=
